<?xml version="1.0" encoding="UTF-8"?>
<?xml-stylesheet type="text/css" href= 'RSVGPlot.css'?>
<svg xmlns="http://www.w3.org/2000/svg" xmlns:xlink="http://www.w3.org/1999/xlink" width="504pt" height="504pt" viewBox="0 0 504 504" version="1.1">
  <r:display xmlns:r="http://www.r-project.org" usr="-125.149569508931,-66.5391893411664,24.8825448928833,49.6306158126831"><![CDATA[map("state", fill = TRUE, col = c("red", "blue")[obama.won[stateNames] + 
    1])]]></r:display>
  <defs>
    <clipPath id="clip1">
      <path d="M 44.640625 142.441406 L 460.359375 142.441406 L 460.359375 362.554688 L 44.640625 362.554688 Z M 44.640625 142.441406 "/>
    </clipPath>
  </defs>
  <g id="surface0">
    <rect x="0" y="0" width="504" height="504" style="fill: rgb(100%,100%,100%); fill-opacity: 1; stroke: none;"/>
    <g clip-path="url(#clip1)" clip-rule="nonzero" type="plot-region">
      <a xlink:title="alabama">
        <path style="fill-rule: nonzero; fill: rgb(100%,0%,0%); fill-opacity: 1;stroke-width: 0.75; stroke-linecap: round; stroke-linejoin: round; stroke: rgb(0%,0%,0%); stroke-opacity: 1;stroke-miterlimit: 10; " d="M 311.3125 312.796875 L 311.3125 312.796875 L 308.921875 313.355469 L 307.175781 309.550781 L 306.164062 313.101562 L 304.746094 312.59375 L 304.460938 295.804688 L 306.324219 272.417969 L 324.40625 272.164062 L 325.015625 275.664062 L 325.421875 278.503906 L 326.515625 285.304688 L 329.273438 296.058594 L 327.976562 299.101562 L 328.503906 306.710938 L 310.300781 307.777344 L 311.109375 309.855469 L 311.3125 312.796875 Z M 311.3125 312.796875 " type="plot-point" id="alabama" xlink:title="alabama">
          <title>alabama</title>
        </path>
      </a>
      <a xlink:title="arizona">
        <path style="fill-rule: nonzero; fill: rgb(100%,0%,0%); fill-opacity: 1;stroke-width: 0.75; stroke-linecap: round; stroke-linejoin: round; stroke: rgb(0%,0%,0%); stroke-opacity: 1;stroke-miterlimit: 10; " d="M 119.023438 271.808594 L 119.023438 271.808594 L 118.578125 262.070312 L 122.710938 262.273438 L 123.238281 254.308594 L 158.632812 254.308594 L 158.511719 304.277344 L 157.253906 304.277344 L 154.496094 304.328125 L 149.347656 304.277344 L 144.847656 304.328125 L 117.808594 293.976562 L 118.65625 291.949219 L 120.15625 290.273438 L 118.578125 288.957031 L 118.941406 285.660156 L 119.710938 281.5 L 122.183594 278.65625 L 121.496094 277.085938 L 119.023438 271.808594 Z M 119.023438 271.808594 " type="plot-point" id="arizona" xlink:title="arizona">
          <title>arizona</title>
        </path>
      </a>
      <a xlink:title="arkansas">
        <path style="fill-rule: nonzero; fill: rgb(100%,0%,0%); fill-opacity: 1;stroke-width: 0.75; stroke-linecap: round; stroke-linejoin: round; stroke: rgb(0%,0%,0%); stroke-opacity: 1;stroke-miterlimit: 10; " d="M 264.691406 289.363281 L 264.691406 289.363281 L 264.203125 284.441406 L 263.433594 284.390625 L 262.175781 284.59375 L 261.609375 278.960938 L 261.488281 265.214844 L 260.636719 258.621094 L 292.378906 258.925781 L 292.378906 261.207031 L 291.246094 263.136719 L 295.824219 263.792969 L 293.960938 266.078125 L 292.867188 268.308594 L 292.054688 268.308594 L 292.621094 271.199219 L 291.488281 272.316406 L 291.570312 272.46875 L 290.433594 273.382812 L 289.582031 275.664062 L 287.433594 278.65625 L 287.472656 279.113281 L 286.824219 279.316406 L 286.21875 280.992188 L 285.285156 283.121094 L 284.960938 283.273438 L 285.082031 284.339844 L 285.285156 286.113281 L 285.40625 287.433594 L 285.285156 289.007812 L 264.691406 289.363281 Z M 264.691406 289.363281 " type="plot-point" id="arkansas" xlink:title="arkansas">
          <title>arkansas</title>
        </path>
      </a>
      <a xlink:title="california">
        <path style="fill-rule: nonzero; fill: rgb(0%,0%,100%); fill-opacity: 1;stroke-width: 0.75; stroke-linecap: round; stroke-linejoin: round; stroke: rgb(0%,0%,0%); stroke-opacity: 1;stroke-miterlimit: 10; " d="M 81.035156 209.921875 L 81.035156 209.921875 L 81.117188 236.65625 L 119.023438 271.808594 L 121.496094 277.085938 L 122.183594 278.65625 L 119.710938 281.5 L 118.941406 285.660156 L 118.578125 288.957031 L 120.15625 290.273438 L 118.65625 291.949219 L 101.507812 293.066406 L 101.589844 292.863281 L 100.65625 290.78125 L 98.183594 285.859375 L 93.5625 282.816406 L 92.628906 282.917969 L 91.453125 280.484375 L 90.074219 280.484375 L 86.75 278.808594 L 83.023438 277.035156 L 77.0625 275.765625 L 76.210938 270.289062 L 75.441406 269.019531 L 67.695312 259.027344 L 68.101562 257.554688 L 68.101562 254.714844 L 67.25 254.5625 L 67.128906 254.460938 L 64.65625 252.886719 L 63.683594 247.257812 L 64.371094 247.917969 L 66.886719 250.199219 L 64.574219 246.039062 L 65.183594 244.972656 L 63.96875 243.960938 L 64.046875 246.292969 L 60.398438 244.921875 L 60.238281 243.757812 L 55.816406 238.074219 L 54.683594 235.132812 L 54.441406 231.074219 L 51.886719 226.40625 L 50.34375 224.023438 L 52.371094 215.804688 L 51.359375 210.53125 L 53.871094 209.921875 L 81.035156 209.921875 Z M 81.035156 209.921875 " type="plot-point" id="california" xlink:title="california">
          <title>california</title>
        </path>
      </a>
      <a xlink:title="colorado">
        <path style="fill-rule: nonzero; fill: rgb(0%,0%,100%); fill-opacity: 1;stroke-width: 0.75; stroke-linecap: round; stroke-linejoin: round; stroke: rgb(0%,0%,0%); stroke-opacity: 1;stroke-miterlimit: 10; " d="M 208.050781 227.625 L 208.050781 227.625 L 207.566406 254.410156 L 169.820312 254.308594 L 158.632812 254.308594 L 158.550781 218.898438 L 166.539062 218.695312 L 208.011719 218.847656 L 208.050781 227.625 Z M 208.050781 227.625 " type="plot-point" id="colorado" xlink:title="colorado">
          <title>colorado</title>
        </path>
      </a>
      <a xlink:title="connecticut">
        <path style="fill-rule: nonzero; fill: rgb(0%,0%,100%); fill-opacity: 1;stroke-width: 0.75; stroke-linecap: round; stroke-linejoin: round; stroke: rgb(0%,0%,0%); stroke-opacity: 1;stroke-miterlimit: 10; " d="M 410.113281 209.566406 L 410.113281 209.566406 L 422.234375 209.921875 L 421.828125 215.804688 L 416.964844 216.566406 L 414.898438 216.566406 L 410.234375 218.441406 L 408.53125 217.886719 L 409.828125 217.125 L 410.113281 209.566406 Z M 410.113281 209.566406 " type="plot-point" id="connecticut" xlink:title="connecticut">
          <title>connecticut</title>
        </path>
      </a>
      <a xlink:title="delaware">
        <path style="fill-rule: nonzero; fill: rgb(0%,0%,100%); fill-opacity: 1;stroke-width: 0.75; stroke-linecap: round; stroke-linejoin: round; stroke: rgb(0%,0%,0%); stroke-opacity: 1;stroke-miterlimit: 10; " d="M 393.816406 230.109375 L 393.816406 230.109375 L 396.371094 229.601562 L 395.316406 232.496094 L 397.464844 237.617188 L 397.789062 237.871094 L 398.84375 238.53125 L 398.394531 240.15625 L 399.125 240.914062 L 394.585938 241.320312 L 393.816406 230.109375 Z M 393.816406 230.109375 " type="plot-point" id="delaware" xlink:title="delaware">
          <title>delaware</title>
        </path>
      </a>
      <a xlink:title="district of columbia">
        <path style="fill: none; stroke-width: 0.75; stroke-linecap: round; stroke-linejoin: round; stroke: rgb(0%,0%,0%); stroke-opacity: 1;stroke-miterlimit: 10; " d="M 384.367188 237.058594 L 384.367188 237.058594 L 385.828125 237.515625 L 384.976562 238.277344 L 384.976562 238.074219 L 384.367188 237.058594 L 384.367188 237.058594 " type="plot-point" id="district of columbia" xlink:title="district of columbia"/>
      </a>
      <a xlink:title="florida">
        <path style="fill-rule: nonzero; fill: rgb(0%,0%,100%); fill-opacity: 1;stroke-width: 0.75; stroke-linecap: round; stroke-linejoin: round; stroke: rgb(0%,0%,0%); stroke-opacity: 1;stroke-miterlimit: 10; " d="M 328.625 307.421875 L 328.625 307.421875 L 329.679688 309.90625 L 348.449219 311.886719 L 349.625 313.050781 L 350.234375 309.09375 L 353.71875 310.769531 L 357.53125 324.617188 L 358.136719 327.003906 L 363.8125 345.621094 L 362.558594 353.988281 L 360.570312 358.707031 L 359.921875 358.707031 L 356.113281 359.113281 L 356.3125 357.84375 L 357.570312 357.894531 L 355.261719 355.308594 L 352.707031 352.417969 L 351.488281 351.65625 L 350.191406 347.34375 L 349.300781 343.386719 L 348.246094 343.183594 L 348.285156 344.351562 L 345.488281 338.113281 L 347.070312 334.460938 L 346.136719 334.863281 L 344.960938 334.15625 L 345.449219 335.828125 L 345.449219 335.929688 L 344.476562 335.320312 L 345.082031 326.34375 L 344.679688 324.820312 L 343.058594 323.449219 L 338.882812 318.328125 L 335.070312 315.335938 L 332.921875 316.5 L 326.476562 318.835938 L 325.542969 317.617188 L 325.867188 318.480469 L 326.433594 318.023438 L 323.878906 315.234375 L 325.054688 315.589844 L 322.90625 313.558594 L 323.394531 314.21875 L 318.042969 312.289062 L 320.191406 312.390625 L 320.273438 311.835938 L 313.746094 312.746094 L 314.191406 312.390625 L 314.230469 311.277344 L 313.175781 311.226562 L 311.476562 313.304688 L 311.515625 311.074219 L 310.703125 309.398438 L 310.300781 307.320312 L 328.625 307.421875 Z M 328.625 307.421875 " type="plot-point" id="florida" xlink:title="florida">
          <title>florida</title>
        </path>
      </a>
      <a xlink:title="georgia">
        <path style="fill-rule: nonzero; fill: rgb(100%,0%,0%); fill-opacity: 1;stroke-width: 0.75; stroke-linecap: round; stroke-linejoin: round; stroke: rgb(0%,0%,0%); stroke-opacity: 1;stroke-miterlimit: 10; " d="M 357.8125 298.1875 L 357.8125 298.1875 L 356.515625 300.015625 L 356.113281 301.332031 L 355.625 302.652344 L 353.882812 305.59375 L 353.476562 306.457031 L 353.921875 307.21875 L 353.109375 309.90625 L 349.785156 309.449219 L 349.097656 313.050781 L 348.449219 311.277344 L 329.152344 309.296875 L 327.933594 305.847656 L 327.894531 301.332031 L 328.949219 296.769531 L 328.378906 293.621094 L 324.40625 272.164062 L 333.53125 272.0625 L 341.921875 272.011719 L 340.382812 274.246094 L 344.152344 277.746094 L 352.585938 288.90625 L 354.976562 293.621094 L 355.910156 296.921875 L 357.8125 298.1875 Z M 357.8125 298.1875 " type="plot-point" id="georgia" xlink:title="georgia">
          <title>georgia</title>
        </path>
      </a>
      <a xlink:title="idaho">
        <path style="fill-rule: nonzero; fill: rgb(100%,0%,0%); fill-opacity: 1;stroke-width: 0.75; stroke-linecap: round; stroke-linejoin: round; stroke: rgb(0%,0%,0%); stroke-opacity: 1;stroke-miterlimit: 10; " d="M 102.117188 209.921875 L 102.117188 209.921875 L 102.644531 192.671875 L 102.277344 190.035156 L 100.65625 188.816406 L 106.050781 177.707031 L 102.644531 174.003906 L 102.15625 148.082031 L 109.089844 148.082031 L 109.171875 157.265625 L 111.441406 160.714844 L 111.238281 161.980469 L 116.957031 166.546875 L 118.210938 168.476562 L 121.132812 168.730469 L 120.402344 173.09375 L 120.644531 174.816406 L 120.238281 175.933594 L 119.550781 177.910156 L 121.171875 179.382812 L 124.007812 177.25 L 127.496094 183.746094 L 128.0625 185.113281 L 128.996094 185.011719 L 130.496094 187.703125 L 131.875 188.5625 L 135.28125 187.550781 L 139.050781 187.652344 L 140.105469 187.398438 L 141.363281 187.449219 L 141.6875 185.875 L 143.875 187.804688 L 144.402344 210.023438 L 102.117188 209.921875 Z M 102.117188 209.921875 " type="plot-point" id="idaho" xlink:title="idaho">
          <title>idaho</title>
        </path>
      </a>
      <a xlink:title="illinois">
        <path style="fill-rule: nonzero; fill: rgb(0%,0%,100%); fill-opacity: 1;stroke-width: 0.75; stroke-linecap: round; stroke-linejoin: round; stroke: rgb(0%,0%,0%); stroke-opacity: 1;stroke-miterlimit: 10; " d="M 288.8125 205.507812 L 288.8125 205.507812 L 308.921875 206.167969 L 309.324219 208.90625 L 310.867188 214.738281 L 310.257812 234.878906 L 310.703125 239.34375 L 307.746094 243.859375 L 307.175781 247.003906 L 306.609375 249.082031 L 306.203125 250.046875 L 303.894531 251.570312 L 303.972656 253.546875 L 299.757812 252.582031 L 299.027344 254.003906 L 298.421875 253.75 L 297.082031 251.316406 L 297.367188 251.0625 L 296.878906 248.523438 L 290.71875 243.503906 L 292.097656 238.582031 L 291.648438 237.261719 L 289.339844 237.71875 L 288.40625 235.589844 L 286.015625 232.648438 L 282.972656 227.625 L 283.621094 223.3125 L 284.394531 222.195312 L 286.460938 219.457031 L 285.8125 215.804688 L 290.109375 214.082031 L 292.378906 209.921875 L 288.8125 205.507812 Z M 288.8125 205.507812 " type="plot-point" id="illinois" xlink:title="illinois">
          <title>illinois</title>
        </path>
      </a>
      <a xlink:title="indiana">
        <path style="fill-rule: nonzero; fill: rgb(0%,0%,100%); fill-opacity: 1;stroke-width: 0.75; stroke-linecap: round; stroke-linejoin: round; stroke: rgb(0%,0%,0%); stroke-opacity: 1;stroke-miterlimit: 10; " d="M 307.339844 247.257812 L 307.339844 247.257812 L 307.257812 245.023438 L 307.582031 243.65625 L 310.90625 238.328125 L 310.257812 234.878906 L 311.273438 212.761719 L 315.488281 212.253906 L 330.164062 212.558594 L 330.003906 237.515625 L 329.394531 238.53125 L 326.355469 238.835938 L 325.625 240.257812 L 323.515625 242.996094 L 321.933594 245.328125 L 319.703125 244.164062 L 318.933594 244.367188 L 317.394531 246.546875 L 316.054688 245.582031 L 314.152344 246.75 L 310.339844 246.292969 L 309.449219 246.242188 L 307.339844 247.257812 Z M 307.339844 247.257812 " type="plot-point" id="indiana" xlink:title="indiana">
          <title>indiana</title>
        </path>
      </a>
      <a xlink:title="iowa">
        <path style="fill-rule: nonzero; fill: rgb(0%,0%,100%); fill-opacity: 1;stroke-width: 0.75; stroke-linecap: round; stroke-linejoin: round; stroke: rgb(0%,0%,0%); stroke-opacity: 1;stroke-miterlimit: 10; " d="M 284.675781 196.730469 L 284.675781 196.730469 L 285.769531 199.015625 L 285.203125 201.195312 L 286.582031 203.78125 L 290.394531 207.027344 L 292.296875 210.328125 L 290.109375 214.082031 L 285.8125 215.804688 L 286.460938 219.457031 L 284.394531 222.195312 L 283.621094 223.3125 L 282.8125 224.023438 L 281.3125 222.246094 L 277.988281 222.246094 L 252.566406 222.347656 L 251.835938 220.929688 L 252 220.523438 L 251.917969 217.988281 L 250.054688 212.507812 L 246.933594 204.085938 L 247.742188 200.6875 L 246.769531 196.730469 L 247.863281 196.78125 L 250.582031 196.730469 L 284.675781 196.730469 Z M 284.675781 196.730469 " type="plot-point" id="iowa" xlink:title="iowa">
          <title>iowa</title>
        </path>
      </a>
      <a xlink:title="kansas">
        <path style="fill-rule: nonzero; fill: rgb(100%,0%,0%); fill-opacity: 1;stroke-width: 0.75; stroke-linecap: round; stroke-linejoin: round; stroke: rgb(0%,0%,0%); stroke-opacity: 1;stroke-miterlimit: 10; " d="M 260.554688 254.054688 L 260.554688 254.054688 L 208.09375 254.257812 L 208.050781 227.625 L 247.660156 227.675781 L 255.488281 227.574219 L 258.769531 229.199219 L 257.1875 231.632812 L 260.515625 235.082031 L 260.554688 254.054688 Z M 260.554688 254.054688 " type="plot-point" id="kansas" xlink:title="kansas">
          <title>kansas</title>
        </path>
      </a>
      <a xlink:title="kentucky">
        <path style="fill-rule: nonzero; fill: rgb(100%,0%,0%); fill-opacity: 1;stroke-width: 0.75; stroke-linecap: round; stroke-linejoin: round; stroke: rgb(0%,0%,0%); stroke-opacity: 1;stroke-miterlimit: 10; " d="M 345.933594 241.625 L 345.933594 241.625 L 346.058594 244.769531 L 349.503906 249.488281 L 350.191406 249.488281 L 343.949219 254.816406 L 337.542969 257.960938 L 307.21875 257.859375 L 307.054688 258.671875 L 297.570312 258.671875 L 298.339844 257.65625 L 299.394531 257.148438 L 299.472656 254.308594 L 300.609375 252.125 L 304.300781 253.089844 L 304.339844 250.503906 L 306.773438 249.4375 L 306.8125 247.816406 L 307.824219 247.308594 L 308.070312 246.394531 L 309.773438 246.445312 L 310.339844 246.292969 L 313.421875 246.851562 L 314.515625 246.140625 L 317.027344 246.140625 L 318.449219 244.214844 L 319.339844 244.214844 L 319.988281 245.023438 L 322.257812 244.71875 L 325.097656 241.320312 L 325.503906 239.699219 L 328.746094 238.53125 L 329.960938 238.53125 L 330.003906 235.539062 L 331.097656 235.742188 L 332.191406 235.640625 L 334.015625 237.160156 L 337.460938 239.445312 L 338.515625 239.242188 L 340.257812 239.445312 L 343.421875 238.683594 L 345.933594 241.625 Z M 345.933594 241.625 " type="plot-point" id="kentucky" xlink:title="kentucky">
          <title>kentucky</title>
        </path>
      </a>
      <a xlink:title="louisiana">
        <path style="fill-rule: nonzero; fill: rgb(100%,0%,0%); fill-opacity: 1;stroke-width: 0.75; stroke-linecap: round; stroke-linejoin: round; stroke: rgb(0%,0%,0%); stroke-opacity: 1;stroke-miterlimit: 10; " d="M 264.691406 289.363281 L 264.691406 289.363281 L 284.757812 290.324219 L 285.527344 290.679688 L 285.570312 293.015625 L 286.09375 294.28125 L 285.445312 294.078125 L 286.621094 296.109375 L 285.082031 297.222656 L 286.257812 297.375 L 283.945312 300.421875 L 283.21875 302.042969 L 281.960938 306.253906 L 281.960938 307.421875 L 295.296875 307.726562 L 294.972656 311.480469 L 296.191406 314.625 L 291.445312 312.949219 L 290.554688 315.335938 L 293.960938 315.082031 L 295.460938 315.386719 L 294.609375 316.601562 L 296.273438 316.652344 L 299.070312 314.828125 L 298.621094 317.210938 L 296.148438 320.253906 L 298.136719 322.4375 L 298.542969 322.335938 L 300.164062 323.148438 L 298.949219 324.769531 L 297.933594 325.125 L 298.015625 324.464844 L 293.597656 320.863281 L 292.824219 322.386719 L 292.097656 324.058594 L 291.488281 323.449219 L 290.515625 322.945312 L 289.257812 322.4375 L 287.3125 324.007812 L 283.824219 320.609375 L 281.757812 318.886719 L 280.054688 318.023438 L 278.230469 318.53125 L 278.3125 319.34375 L 277.703125 319.847656 L 272.269531 318.480469 L 265.867188 318.226562 L 266.433594 316.601562 L 266.839844 313.40625 L 268.257812 307.167969 L 266.191406 301.941406 L 264.972656 298.644531 L 264.691406 289.363281 Z M 264.691406 289.363281 " type="plot-point" id="louisiana" xlink:title="louisiana">
          <title>louisiana</title>
        </path>
      </a>
      <a xlink:title="maine">
        <path style="fill-rule: nonzero; fill: rgb(0%,0%,100%); fill-opacity: 1;stroke-width: 0.75; stroke-linecap: round; stroke-linejoin: round; stroke: rgb(0%,0%,0%); stroke-opacity: 1;stroke-miterlimit: 10; " d="M 429.652344 200.382812 L 429.652344 200.382812 L 427.992188 195.917969 L 427.707031 180.347656 L 429.046875 180.5 L 430.34375 179.738281 L 429.976562 178.417969 L 432.980469 174.917969 L 433.546875 171.46875 L 438.65625 163.554688 L 440.925781 161.679688 L 442.507812 163.960938 L 447.898438 162.742188 L 450.613281 165.636719 L 450.9375 177.453125 L 453.167969 178.824219 L 453.410156 181.96875 L 455.316406 182.882812 L 455.234375 184.050781 L 455.316406 184.554688 L 455.804688 185.46875 L 453.9375 186.179688 L 451.910156 187.5 L 450.695312 187.601562 L 449.359375 188.308594 L 448.667969 188.816406 L 448.261719 188.308594 L 445.832031 188.5625 L 444.855469 189.527344 L 443.601562 189.476562 L 443.683594 188.816406 L 443.558594 188.410156 L 443.519531 187.652344 L 442.34375 188.308594 L 440.84375 192.011719 L 439.628906 192.316406 L 438.65625 193.027344 L 436.992188 193.332031 L 436.179688 194.550781 L 435.003906 193.636719 L 433.101562 195.566406 L 429.652344 200.382812 Z M 429.652344 200.382812 " type="plot-point" id="maine" xlink:title="maine">
          <title>maine</title>
        </path>
      </a>
      <a xlink:title="maryland">
        <path style="fill-rule: nonzero; fill: rgb(0%,0%,100%); fill-opacity: 1;stroke-width: 0.75; stroke-linecap: round; stroke-linejoin: round; stroke: rgb(0%,0%,0%); stroke-opacity: 1;stroke-miterlimit: 10; " d="M 380.273438 233.660156 L 380.273438 233.660156 L 378.613281 231.226562 L 375.085938 231.125 L 373.664062 231.785156 L 372.492188 231.378906 L 367.707031 234.726562 L 367.664062 230.160156 L 393.816406 230.109375 L 394.585938 241.320312 L 398.84375 241.980469 L 398.152344 243.453125 L 396.9375 245.175781 L 393.207031 245.480469 L 393.449219 244.871094 L 393.652344 244.0625 L 392.800781 244.164062 L 393.125 242.488281 L 392.355469 242.742188 L 391.34375 242.792969 L 390.570312 241.117188 L 390.734375 240.460938 L 391.828125 239.953125 L 391.097656 239.292969 L 390.167969 238.53125 L 391.058594 237.71875 L 391.300781 235.488281 L 390.855469 235.996094 L 390.773438 235.996094 L 390.53125 235.285156 L 393.085938 232.546875 L 392.519531 231.988281 L 391.625 231.988281 L 389.84375 233.660156 L 388.585938 234.320312 L 389.03125 236.25 L 388.585938 238.378906 L 389.4375 241.878906 L 388.300781 241.625 L 388.667969 242.386719 L 389.921875 244.417969 L 389.070312 243.65625 L 386.191406 242.4375 L 384.734375 241.828125 L 383.03125 241.828125 L 385.828125 237.515625 L 384.367188 237.058594 L 381.773438 234.828125 L 380.273438 233.660156 Z M 380.273438 233.660156 " type="plot-point" id="maryland" xlink:title="maryland">
          <title>maryland</title>
        </path>
      </a>
      <a xlink:title="massachusetts">
        <path style="fill-rule: nonzero; fill: rgb(0%,0%,100%); fill-opacity: 1;stroke-width: 0.75; stroke-linecap: round; stroke-linejoin: round; stroke: rgb(0%,0%,0%); stroke-opacity: 1;stroke-miterlimit: 10; " d="M 431.679688 215.296875 L 431.679688 215.296875 L 429.167969 215.753906 L 429.371094 215.804688 L 429.9375 215.042969 L 431.679688 215.296875 Z M 431.679688 215.296875 " type="plot-point" id="massachusetts:marthas vineyard" xlink:title="massachusetts">
          <title>massachusetts</title>
        </path>
      </a>
      <a xlink:title="massachusetts">
        <path style="fill-rule: nonzero; fill: rgb(0%,0%,100%); fill-opacity: 1;stroke-width: 0.75; stroke-linecap: round; stroke-linejoin: round; stroke: rgb(0%,0%,0%); stroke-opacity: 1;stroke-miterlimit: 10; " d="M 410.113281 209.566406 L 410.113281 209.566406 L 411.652344 203.425781 L 426.410156 203.273438 L 428.804688 202.820312 L 429.492188 205.050781 L 427.546875 207.535156 L 430.304688 209.160156 L 430.585938 210.480469 L 432.492188 212.457031 L 434.519531 211.796875 L 434.679688 211.542969 L 434.113281 209.820312 L 434.640625 209.921875 L 434.882812 213.167969 L 430.179688 214.03125 L 430.261719 212.761719 L 427.828125 214.132812 L 426.371094 212.203125 L 425.074219 210.125 L 410.113281 209.566406 Z M 410.113281 209.566406 " type="plot-point" id="massachusetts:main" xlink:title="massachusetts">
          <title>massachusetts</title>
        </path>
      </a>
      <a xlink:title="massachusetts">
        <path style="fill-rule: nonzero; fill: rgb(0%,0%,100%); fill-opacity: 1;stroke-width: 0.75; stroke-linecap: round; stroke-linejoin: round; stroke: rgb(0%,0%,0%); stroke-opacity: 1;stroke-miterlimit: 10; " d="M 434.4375 216.414062 L 434.4375 216.414062 L 434.925781 215.804688 L 435.085938 216.3125 L 435.207031 216.414062 L 433.382812 216.414062 L 434.4375 216.414062 Z M 434.4375 216.414062 " type="plot-point" id="massachusetts:nantucket" xlink:title="massachusetts">
          <title>massachusetts</title>
        </path>
      </a>
      <a xlink:title="michigan">
        <path style="fill-rule: nonzero; fill: rgb(0%,0%,100%); fill-opacity: 1;stroke-width: 0.75; stroke-linecap: round; stroke-linejoin: round; stroke: rgb(0%,0%,0%); stroke-opacity: 1;stroke-miterlimit: 10; " d="M 290.433594 169.640625 L 290.433594 169.640625 L 297.40625 167.105469 L 307.5 161.628906 L 309 162.285156 L 304.460938 166.089844 L 304.664062 167.460938 L 305.839844 166.953125 L 310.460938 167.714844 L 312.773438 170.199219 L 317.800781 170.25 L 323.273438 168.628906 L 328.746094 168.324219 L 329.109375 170.402344 L 333.488281 170.554688 L 333.8125 170.65625 L 334.382812 172.484375 L 335.757812 174.257812 L 332.03125 174.410156 L 330.8125 175.222656 L 327.976562 174.207031 L 320.921875 174.867188 L 316.988281 177.859375 L 317.757812 175.476562 L 315.203125 177.097656 L 314.71875 176.085938 L 309.851562 182.375 L 309.652344 180.800781 L 308.675781 180.347656 L 308.878906 178.011719 L 306.730469 175.78125 L 294.164062 172.078125 L 290.433594 169.640625 Z M 290.433594 169.640625 " type="plot-point" id="michigan:north" xlink:title="michigan">
          <title>michigan</title>
        </path>
      </a>
      <a xlink:title="michigan">
        <path style="fill-rule: nonzero; fill: rgb(0%,0%,100%); fill-opacity: 1;stroke-width: 0.75; stroke-linecap: round; stroke-linejoin: round; stroke: rgb(0%,0%,0%); stroke-opacity: 1;stroke-miterlimit: 10; " d="M 339.734375 212.203125 L 339.734375 212.203125 L 330.164062 212.558594 L 316.460938 211.441406 L 320.109375 204.847656 L 319.460938 199.066406 L 318.125 195.109375 L 318.570312 192.773438 L 318.773438 191.101562 L 320.636719 185.875 L 322.664062 183.847656 L 324.609375 182.425781 L 324.730469 184.859375 L 325.339844 183.949219 L 325.339844 185.367188 L 326.839844 180.75 L 328.867188 179.738281 L 328.257812 178.011719 L 329.960938 176.847656 L 333.207031 177.707031 L 333.652344 177.605469 L 339.207031 180.246094 L 340.664062 182.628906 L 340.21875 182.882812 L 340.300781 184.605469 L 340.582031 188.058594 L 337.582031 192.214844 L 336.246094 193.890625 L 337.625 195.566406 L 342.367188 192.113281 L 344.636719 192.214844 L 346.257812 198.660156 L 346.257812 203.375 L 345.207031 204.492188 L 344.191406 204.441406 L 341.882812 208.09375 L 339.734375 212.203125 Z M 339.734375 212.203125 " type="plot-point" id="michigan:south" xlink:title="michigan">
          <title>michigan</title>
        </path>
      </a>
      <a xlink:title="minnesota">
        <path style="fill-rule: nonzero; fill: rgb(0%,0%,100%); fill-opacity: 1;stroke-width: 0.75; stroke-linecap: round; stroke-linejoin: round; stroke: rgb(0%,0%,0%); stroke-opacity: 1;stroke-miterlimit: 10; " d="M 247.863281 196.78125 L 247.863281 196.78125 L 247.257812 180.09375 L 245.066406 177.503906 L 246.890625 174.816406 L 245.675781 169.539062 L 244.136719 158.582031 L 242.835938 153.257812 L 242.472656 148.945312 L 242.230469 148.03125 L 256.863281 147.980469 L 257.230469 144.734375 L 259.417969 145.394531 L 260.757812 150.367188 L 266.554688 151.582031 L 266.675781 152.394531 L 272.675781 151.378906 L 274.460938 152.496094 L 276.242188 154.324219 L 277.257812 153.867188 L 279.242188 154.375 L 279.367188 154.675781 L 281.878906 155.945312 L 286.175781 155.132812 L 287.59375 155.183594 L 294.851562 156.757812 L 296.472656 156.757812 L 290.839844 159.191406 L 277.621094 168.679688 L 277.136719 173.242188 L 275.394531 174.765625 L 272.796875 177.757812 L 274.339844 179.839844 L 273.566406 184.960938 L 276.121094 187.195312 L 283.746094 192.925781 L 284.433594 196.222656 L 247.863281 196.78125 Z M 247.863281 196.78125 " type="plot-point" id="minnesota" xlink:title="minnesota">
          <title>minnesota</title>
        </path>
      </a>
      <a xlink:title="mississippi">
        <path style="fill-rule: nonzero; fill: rgb(100%,0%,0%); fill-opacity: 1;stroke-width: 0.75; stroke-linecap: round; stroke-linejoin: round; stroke: rgb(0%,0%,0%); stroke-opacity: 1;stroke-miterlimit: 10; " d="M 306.164062 272.011719 L 306.164062 272.011719 L 306.203125 278.050781 L 304.300781 303.566406 L 304.300781 312.949219 L 303.648438 313.050781 L 300.042969 312.695312 L 297.488281 313.761719 L 296.109375 314.117188 L 294.730469 309.347656 L 295.097656 307.371094 L 291.445312 307.371094 L 281.960938 307.421875 L 282.285156 305.035156 L 282.8125 302.042969 L 283.945312 300.421875 L 286.09375 297.070312 L 285.082031 297.222656 L 286.824219 295.5 L 285.445312 294.078125 L 285.445312 293.875 L 286.09375 294.28125 L 285.570312 293.015625 L 285.246094 290.425781 L 285.769531 287.179688 L 285.488281 285.808594 L 285.082031 285.304688 L 284.796875 283.578125 L 285.285156 283.578125 L 285.972656 280.6875 L 286.421875 279.46875 L 287.230469 279.46875 L 287.027344 279.011719 L 288.570312 277.441406 L 289.945312 274.5 L 291.367188 272.011719 L 300.285156 272.0625 L 301.664062 272.011719 L 306.164062 272.011719 Z M 306.164062 272.011719 " type="plot-point" id="mississippi" xlink:title="mississippi">
          <title>mississippi</title>
        </path>
      </a>
      <a xlink:title="missouri">
        <path style="fill-rule: nonzero; fill: rgb(100%,0%,0%); fill-opacity: 1;stroke-width: 0.75; stroke-linecap: round; stroke-linejoin: round; stroke: rgb(0%,0%,0%); stroke-opacity: 1;stroke-miterlimit: 10; " d="M 252.648438 222.296875 L 252.648438 222.296875 L 281.917969 222.703125 L 283.175781 224.632812 L 283.09375 228.996094 L 288.40625 235.589844 L 289.339844 237.71875 L 291.648438 237.261719 L 292.097656 238.582031 L 290.71875 243.503906 L 296.878906 248.523438 L 297.082031 251.316406 L 298.421875 253.75 L 299.796875 255.222656 L 299.070312 258.0625 L 298.339844 257.65625 L 297.570312 258.671875 L 297.042969 258.113281 L 296.109375 260.851562 L 295.988281 262.273438 L 291.246094 263.136719 L 292.378906 261.207031 L 292.378906 258.925781 L 260.636719 258.621094 L 260.757812 235.183594 L 257.515625 232.089844 L 258.730469 229.5 L 257.636719 228.742188 L 254.675781 225.847656 L 252.648438 222.296875 Z M 252.648438 222.296875 " type="plot-point" id="missouri" xlink:title="missouri">
          <title>missouri</title>
        </path>
      </a>
      <a xlink:title="montana">
        <path style="fill-rule: nonzero; fill: rgb(100%,0%,0%); fill-opacity: 1;stroke-width: 0.75; stroke-linecap: round; stroke-linejoin: round; stroke: rgb(0%,0%,0%); stroke-opacity: 1;stroke-miterlimit: 10; " d="M 193.945312 148.03125 L 193.945312 148.03125 L 193.902344 183.390625 L 187.011719 183.390625 L 180.769531 183.390625 L 179.996094 183.441406 L 167.550781 183.441406 L 166.660156 183.492188 L 144.441406 183.492188 L 143.875 187.804688 L 141.6875 185.875 L 141.363281 187.449219 L 140.105469 187.398438 L 139.050781 187.652344 L 135.28125 187.550781 L 131.875 188.5625 L 130.496094 187.703125 L 128.996094 185.011719 L 128.0625 185.113281 L 127.496094 183.746094 L 124.007812 177.25 L 121.171875 179.382812 L 119.550781 177.910156 L 120.035156 177.605469 L 119.875 176.949219 L 120.886719 175.679688 L 120.28125 174.664062 L 121.253906 168.984375 L 118.210938 168.476562 L 116.957031 166.546875 L 111.238281 161.980469 L 111.441406 160.714844 L 109.171875 157.265625 L 109.089844 148.082031 L 119.265625 148.132812 L 122.265625 148.082031 L 172.660156 148.082031 L 173.996094 148.03125 L 193.945312 148.03125 Z M 193.945312 148.03125 " type="plot-point" id="montana" xlink:title="montana">
          <title>montana</title>
        </path>
      </a>
      <a xlink:title="nebraska">
        <path style="fill-rule: nonzero; fill: rgb(100%,0%,0%); fill-opacity: 1;stroke-width: 0.75; stroke-linecap: round; stroke-linejoin: round; stroke: rgb(0%,0%,0%); stroke-opacity: 1;stroke-miterlimit: 10; " d="M 193.863281 201.09375 L 193.863281 201.09375 L 233.957031 201.855469 L 237.484375 202.972656 L 242.675781 203.023438 L 246.40625 205 L 248.027344 206.625 L 250.175781 211.949219 L 250.257812 212.203125 L 250.054688 212.507812 L 251.269531 214.789062 L 251.917969 220.167969 L 255.121094 227.015625 L 208.050781 227.625 L 208.011719 218.847656 L 193.863281 218.796875 L 193.863281 201.09375 Z M 193.863281 201.09375 " type="plot-point" id="nebraska" xlink:title="nebraska">
          <title>nebraska</title>
        </path>
      </a>
      <a xlink:title="nevada">
        <path style="fill-rule: nonzero; fill: rgb(0%,0%,100%); fill-opacity: 1;stroke-width: 0.75; stroke-linecap: round; stroke-linejoin: round; stroke: rgb(0%,0%,0%); stroke-opacity: 1;stroke-miterlimit: 10; " d="M 123.238281 254.308594 L 123.238281 254.308594 L 122.550781 262.78125 L 121.65625 262.882812 L 118.578125 262.070312 L 118.980469 271.046875 L 119.023438 271.808594 L 81.117188 236.65625 L 81.035156 209.921875 L 123.199219 209.972656 L 123.238281 254.308594 Z M 123.238281 254.308594 " type="plot-point" id="nevada" xlink:title="nevada">
          <title>nevada</title>
        </path>
      </a>
      <a xlink:title="new hampshire">
        <path style="fill-rule: nonzero; fill: rgb(0%,0%,100%); fill-opacity: 1;stroke-width: 0.75; stroke-linecap: round; stroke-linejoin: round; stroke: rgb(0%,0%,0%); stroke-opacity: 1;stroke-miterlimit: 10; " d="M 417.371094 203.527344 L 417.371094 203.527344 L 417.371094 201.246094 L 419.03125 194.550781 L 421.019531 189.375 L 423.898438 186.992188 L 423.613281 185.214844 L 424.222656 183.339844 L 425.558594 180.800781 L 426.734375 180.953125 L 427.992188 195.917969 L 429.695312 201.09375 L 426.410156 203.273438 L 417.371094 203.527344 Z M 417.371094 203.527344 " type="plot-point" id="new hampshire" xlink:title="new hampshire">
          <title>new hampshire</title>
        </path>
      </a>
      <a xlink:title="new jersey">
        <path style="fill-rule: nonzero; fill: rgb(0%,0%,100%); fill-opacity: 1;stroke-width: 0.75; stroke-linecap: round; stroke-linejoin: round; stroke: rgb(0%,0%,0%); stroke-opacity: 1;stroke-miterlimit: 10; " d="M 401.4375 215.601562 L 401.4375 215.601562 L 407.195312 219.660156 L 404.722656 223.566406 L 406.871094 224.226562 L 406.058594 227.523438 L 403.992188 231.734375 L 399.855469 237.160156 L 400.058594 235.082031 L 397.585938 233.964844 L 395.679688 230.921875 L 400.871094 226.558594 L 398.476562 222.601562 L 398.84375 219.507812 L 401.4375 215.601562 Z M 401.4375 215.601562 " type="plot-point" id="new jersey" xlink:title="new jersey">
          <title>new jersey</title>
        </path>
      </a>
      <a xlink:title="new mexico">
        <path style="fill-rule: nonzero; fill: rgb(0%,0%,100%); fill-opacity: 1;stroke-width: 0.75; stroke-linecap: round; stroke-linejoin: round; stroke: rgb(0%,0%,0%); stroke-opacity: 1;stroke-miterlimit: 10; " d="M 201.324219 254.257812 L 201.324219 254.257812 L 200.835938 298.59375 L 188.308594 298.59375 L 180.160156 298.59375 L 177.402344 298.644531 L 175.699219 298.59375 L 176.269531 300.472656 L 164.429688 300.421875 L 164.347656 304.277344 L 162.402344 304.328125 L 159.605469 304.328125 L 158.511719 304.277344 L 158.632812 254.308594 L 163.214844 254.308594 L 201.324219 254.257812 Z M 201.324219 254.257812 " type="plot-point" id="new mexico" xlink:title="new mexico">
          <title>new mexico</title>
        </path>
      </a>
      <a xlink:title="new york">
        <path style="fill-rule: nonzero; fill: rgb(0%,0%,100%); fill-opacity: 1;stroke-width: 0.75; stroke-linecap: round; stroke-linejoin: round; stroke: rgb(0%,0%,0%); stroke-opacity: 1;stroke-miterlimit: 10; " d="M 407.074219 220.574219 L 407.074219 220.574219 L 406.421875 221.4375 L 406.382812 221.335938 L 407.074219 220.574219 Z M 407.074219 220.574219 " type="plot-point" id="new york:manhattan" xlink:title="new york"/>
      </a>
      <a xlink:title="new york">
        <path style="fill-rule: nonzero; fill: rgb(0%,0%,100%); fill-opacity: 1;stroke-width: 0.75; stroke-linecap: round; stroke-linejoin: round; stroke: rgb(0%,0%,0%); stroke-opacity: 1;stroke-miterlimit: 10; " d="M 365.761719 207.6875 L 365.761719 207.6875 L 372.207031 202.820312 L 371.070312 199.421875 L 375.003906 197.949219 L 382.707031 198.660156 L 387.570312 197.898438 L 390.855469 195.464844 L 390.773438 193.535156 L 390.816406 191.8125 L 390.246094 192.265625 L 390.207031 191 L 399.898438 183.542969 L 401.316406 183.492188 L 401.4375 183.492188 L 411.085938 183.339844 L 410.84375 190.59375 L 410.640625 196.019531 L 411.207031 195.617188 L 411.695312 199.722656 L 410.679688 207.128906 L 410.113281 216.921875 L 408.53125 217.886719 L 407.84375 220.421875 L 407.195312 219.660156 L 400.503906 215.042969 L 399.046875 212.558594 L 397.464844 210.53125 L 365.839844 209.972656 L 365.761719 207.6875 Z M 365.761719 207.6875 " type="plot-point" id="new york:main" xlink:title="new york">
          <title>new york</title>
        </path>
      </a>
      <a xlink:title="new york">
        <path style="fill-rule: nonzero; fill: rgb(0%,0%,100%); fill-opacity: 1;stroke-width: 0.75; stroke-linecap: round; stroke-linejoin: round; stroke: rgb(0%,0%,0%); stroke-opacity: 1;stroke-miterlimit: 10; " d="M 404.597656 223.414062 L 404.597656 223.414062 L 405.898438 221.84375 L 404.476562 223.210938 L 404.722656 223.007812 L 404.597656 223.414062 Z M 404.597656 223.414062 " type="plot-point" id="new york:staten island" xlink:title="new york">
          <title>new york</title>
        </path>
      </a>
      <a xlink:title="new york">
        <path style="fill-rule: nonzero; fill: rgb(0%,0%,100%); fill-opacity: 1;stroke-width: 0.75; stroke-linecap: round; stroke-linejoin: round; stroke: rgb(0%,0%,0%); stroke-opacity: 1;stroke-miterlimit: 10; " d="M 417.207031 219.761719 L 417.207031 219.761719 L 421.585938 218.238281 L 413.800781 221.183594 L 407.761719 222.09375 L 407.519531 222.09375 L 407.316406 222.195312 L 406.546875 222.550781 L 407.195312 220.878906 L 412.992188 219.253906 L 418.300781 217.582031 L 416.722656 219.304688 L 417.207031 219.761719 Z M 417.207031 219.761719 " type="plot-point" id="new york:long island" xlink:title="new york">
          <title>new york</title>
        </path>
      </a>
      <a xlink:title="north carolina">
        <path style="fill-rule: nonzero; fill: rgb(0%,0%,100%); fill-opacity: 1;stroke-width: 0.75; stroke-linecap: round; stroke-linejoin: round; stroke: rgb(0%,0%,0%); stroke-opacity: 1;stroke-miterlimit: 10; " d="M 393.167969 258.214844 L 393.167969 258.214844 L 395.519531 264.910156 L 393.167969 258.214844 Z M 393.167969 258.214844 " type="plot-point" id="north carolina:knotts" xlink:title="north carolina"/>
      </a>
      <a xlink:title="north carolina">
        <path style="fill-rule: nonzero; fill: rgb(0%,0%,100%); fill-opacity: 1;stroke-width: 0.75; stroke-linecap: round; stroke-linejoin: round; stroke: rgb(0%,0%,0%); stroke-opacity: 1;stroke-miterlimit: 10; " d="M 374.316406 282.007812 L 374.316406 282.007812 L 366.289062 273.6875 L 358.585938 273.585938 L 357.449219 270.945312 L 356.71875 270.996094 L 345.773438 270.742188 L 338.757812 272.0625 L 334.785156 272.164062 L 333.53125 272.011719 L 334.339844 269.832031 L 338.679688 266.941406 L 343.503906 264.097656 L 345.570312 263.085938 L 350.109375 261.257812 L 351.933594 259.230469 L 352.460938 257.859375 L 392.234375 258.824219 L 393.167969 261.460938 L 392.640625 261.054688 L 391.503906 261.054688 L 391.464844 261.867188 L 390.652344 261.765625 L 389.597656 261.714844 L 389.355469 262.324219 L 387.613281 262.628906 L 387.328125 261.054688 L 387.613281 263.84375 L 392.273438 263.742188 L 391.667969 265.824219 L 392.519531 265.417969 L 392.519531 265.0625 L 393.207031 263.742188 L 394.058594 263.84375 L 394.097656 265.925781 L 391.992188 268.308594 L 389.070312 268.5625 L 389.113281 267.496094 L 387.9375 267.089844 L 388.058594 267.851562 L 385.34375 267.496094 L 387.816406 269.273438 L 388.585938 269.222656 L 388.179688 270.644531 L 387.816406 271.605469 L 385.503906 271.300781 L 386.355469 272.570312 L 389.355469 271.859375 L 390.125 271.808594 L 389.273438 273.636719 L 384.652344 274.398438 L 383.640625 275.664062 L 382.625 274.546875 L 382.421875 275.867188 L 381.855469 276.628906 L 379.140625 280.484375 L 378.9375 280.28125 L 378.53125 280.992188 L 374.316406 282.007812 Z M 374.316406 282.007812 " type="plot-point" id="north carolina:main" xlink:title="north carolina">
          <title>north carolina</title>
        </path>
      </a>
      <a xlink:title="north carolina">
        <path style="fill-rule: nonzero; fill: rgb(0%,0%,100%); fill-opacity: 1;stroke-width: 0.75; stroke-linecap: round; stroke-linejoin: round; stroke: rgb(0%,0%,0%); stroke-opacity: 1;stroke-miterlimit: 10; " d="M 392.394531 258.214844 L 392.394531 258.214844 L 393.046875 258.773438 L 392.84375 258.773438 L 392.394531 258.214844 Z M 392.394531 258.214844 " type="plot-point" id="north carolina:spit" xlink:title="north carolina"/>
      </a>
      <a xlink:title="north dakota">
        <path style="fill-rule: nonzero; fill: rgb(100%,0%,0%); fill-opacity: 1;stroke-width: 0.75; stroke-linecap: round; stroke-linejoin: round; stroke: rgb(0%,0%,0%); stroke-opacity: 1;stroke-miterlimit: 10; " d="M 193.945312 175.121094 L 193.945312 175.121094 L 193.945312 148.03125 L 242.230469 148.589844 L 242.835938 152.34375 L 243.6875 157.925781 L 244.742188 160.054688 L 245.675781 169.539062 L 246.890625 174.613281 L 193.945312 175.121094 Z M 193.945312 175.121094 " type="plot-point" id="north dakota" xlink:title="north dakota">
          <title>north dakota</title>
        </path>
      </a>
      <a xlink:title="ohio">
        <path style="fill-rule: nonzero; fill: rgb(0%,0%,100%); fill-opacity: 1;stroke-width: 0.75; stroke-linecap: round; stroke-linejoin: round; stroke: rgb(0%,0%,0%); stroke-opacity: 1;stroke-miterlimit: 10; " d="M 360.449219 221.992188 L 360.449219 221.992188 L 359.355469 222.5 L 359.113281 226.253906 L 357.125 231.277344 L 354.164062 233.054688 L 351.734375 234.878906 L 350.882812 237.414062 L 349.136719 236.808594 L 347.636719 241.269531 L 345.8125 241.421875 L 343.421875 238.683594 L 340.257812 239.445312 L 338.515625 239.242188 L 337.460938 239.445312 L 335.191406 238.378906 L 334.707031 238.226562 L 333.691406 236.554688 L 330.53125 235.386719 L 330.164062 212.558594 L 339.570312 212.8125 L 343.015625 213.980469 L 344.3125 213.726562 L 343.015625 214.789062 L 344.109375 214.6875 L 345.449219 214.890625 L 353.070312 213.523438 L 360.328125 210.277344 L 360.449219 221.992188 Z M 360.449219 221.992188 " type="plot-point" id="ohio" xlink:title="ohio">
          <title>ohio</title>
        </path>
      </a>
      <a xlink:title="oklahoma">
        <path style="fill-rule: nonzero; fill: rgb(100%,0%,0%); fill-opacity: 1;stroke-width: 0.75; stroke-linecap: round; stroke-linejoin: round; stroke: rgb(0%,0%,0%); stroke-opacity: 1;stroke-miterlimit: 10; " d="M 208.09375 254.257812 L 208.09375 254.257812 L 260.554688 254.15625 L 261.730469 274.195312 L 261.164062 283.832031 L 256.09375 281.195312 L 253.988281 281.246094 L 247.90625 283.070312 L 246 281.855469 L 244.660156 282.105469 L 243.890625 281.246094 L 243.242188 282.511719 L 243.121094 282.613281 L 243.121094 283.019531 L 242.59375 282.207031 L 241.054688 282.613281 L 239.59375 281.347656 L 237.730469 282.257812 L 236.148438 279.773438 L 233.148438 280.179688 L 229.011719 279.011719 L 228 277.59375 L 225.605469 277.1875 L 223.175781 275.867188 L 222.566406 258.773438 L 201.363281 258.875 L 201.324219 254.257812 L 202.175781 254.410156 L 208.09375 254.257812 Z M 208.09375 254.257812 " type="plot-point" id="oklahoma" xlink:title="oklahoma">
          <title>oklahoma</title>
        </path>
      </a>
      <a xlink:title="oregon">
        <path style="fill-rule: nonzero; fill: rgb(0%,0%,100%); fill-opacity: 1;stroke-width: 0.75; stroke-linecap: round; stroke-linejoin: round; stroke: rgb(0%,0%,0%); stroke-opacity: 1;stroke-miterlimit: 10; " d="M 102.804688 174.613281 L 102.804688 174.613281 L 106.089844 178.011719 L 100.859375 189.324219 L 102.847656 191.203125 L 102.117188 195.109375 L 102.117188 209.921875 L 53.871094 209.921875 L 51.480469 209.972656 L 49.980469 206.066406 L 49.332031 202.871094 L 52.046875 191.507812 L 52.695312 184.960938 L 52.859375 184.152344 L 53.386719 178.976562 L 53.304688 172.992188 L 54.480469 173.09375 L 55.089844 173.09375 L 55.980469 172.839844 L 60.480469 173.953125 L 61.414062 177.199219 L 63.519531 178.367188 L 67.65625 177.503906 L 72.519531 177.707031 L 88.453125 174.613281 L 102.804688 174.613281 Z M 102.804688 174.613281 " type="plot-point" id="oregon" xlink:title="oregon">
          <title>oregon</title>
        </path>
      </a>
      <a xlink:title="pennsylvania">
        <path style="fill-rule: nonzero; fill: rgb(0%,0%,100%); fill-opacity: 1;stroke-width: 0.75; stroke-linecap: round; stroke-linejoin: round; stroke: rgb(0%,0%,0%); stroke-opacity: 1;stroke-miterlimit: 10; " d="M 365.761719 207.6875 L 365.761719 207.6875 L 365.839844 209.972656 L 397.464844 210.53125 L 399.046875 212.558594 L 400.503906 215.042969 L 401.113281 215.855469 L 398.84375 219.507812 L 398.476562 222.601562 L 400.382812 224.988281 L 400.503906 225.140625 L 401.355469 226.253906 L 398.679688 228.082031 L 394.503906 229.5 L 360.449219 230.160156 L 360.328125 210.277344 L 365.761719 207.6875 Z M 365.761719 207.6875 " type="plot-point" id="pennsylvania" xlink:title="pennsylvania">
          <title>pennsylvania</title>
        </path>
      </a>
      <a xlink:title="rhode island">
        <path style="fill-rule: nonzero; fill: rgb(0%,0%,100%); fill-opacity: 1;stroke-width: 0.75; stroke-linecap: round; stroke-linejoin: round; stroke: rgb(0%,0%,0%); stroke-opacity: 1;stroke-miterlimit: 10; " d="M 421.828125 215.804688 L 421.828125 215.804688 L 422.234375 209.921875 L 425.074219 210.125 L 426.371094 212.203125 L 426.652344 214.585938 L 426.167969 214.738281 L 426.128906 214.941406 L 425.964844 215.042969 L 425.558594 213.320312 L 424.503906 214.941406 L 421.828125 215.804688 Z M 421.828125 215.804688 " type="plot-point" id="rhode island" xlink:title="rhode island">
          <title>rhode island</title>
        </path>
      </a>
      <a xlink:title="south carolina">
        <path style="fill-rule: nonzero; fill: rgb(100%,0%,0%); fill-opacity: 1;stroke-width: 0.75; stroke-linecap: round; stroke-linejoin: round; stroke: rgb(0%,0%,0%); stroke-opacity: 1;stroke-miterlimit: 10; " d="M 342.125 272.0625 L 342.125 272.0625 L 348.410156 270.238281 L 356.636719 271.097656 L 358.625 272.621094 L 358.585938 273.585938 L 366.410156 273.738281 L 374.070312 282.15625 L 369.410156 286.316406 L 369.207031 288.652344 L 364.867188 291.238281 L 363.570312 293.015625 L 360.734375 294.585938 L 360.734375 294.6875 L 360.125 295.5 L 358.707031 295.042969 L 358.746094 296.414062 L 358.136719 297.375 L 356.679688 297.730469 L 354.976562 293.621094 L 354.042969 291.085938 L 349.136719 284.441406 L 344.152344 277.746094 L 340.664062 274.953125 L 342.125 272.0625 Z M 342.125 272.0625 " type="plot-point" id="south carolina" xlink:title="south carolina">
          <title>south carolina</title>
        </path>
      </a>
      <a xlink:title="south dakota">
        <path style="fill-rule: nonzero; fill: rgb(100%,0%,0%); fill-opacity: 1;stroke-width: 0.75; stroke-linecap: round; stroke-linejoin: round; stroke: rgb(0%,0%,0%); stroke-opacity: 1;stroke-miterlimit: 10; " d="M 247.824219 205.8125 L 247.824219 205.8125 L 240.972656 202.464844 L 240.121094 202.464844 L 238.945312 202.667969 L 237.648438 202.617188 L 235.785156 202.871094 L 233.109375 201.195312 L 193.863281 201.09375 L 193.902344 183.390625 L 193.945312 181.5625 L 193.945312 175.121094 L 236.917969 175.171875 L 242.230469 175.121094 L 246.933594 175.121094 L 245.066406 177.503906 L 247.257812 180.09375 L 247.863281 196.78125 L 246.769531 196.730469 L 247.257812 198.152344 L 247.582031 199.21875 L 246.6875 203.125 L 247.824219 205.8125 Z M 247.824219 205.8125 " type="plot-point" id="south dakota" xlink:title="south dakota">
          <title>south dakota</title>
        </path>
      </a>
      <a xlink:title="tennessee">
        <path style="fill-rule: nonzero; fill: rgb(100%,0%,0%); fill-opacity: 1;stroke-width: 0.75; stroke-linecap: round; stroke-linejoin: round; stroke: rgb(0%,0%,0%); stroke-opacity: 1;stroke-miterlimit: 10; " d="M 295.339844 263.085938 L 295.339844 263.085938 L 296.109375 261.460938 L 296.109375 260.851562 L 297.042969 258.113281 L 297.570312 258.671875 L 307.21875 258.164062 L 307.054688 257.148438 L 352.058594 258.214844 L 351.367188 260.039062 L 348.894531 261.96875 L 345.652344 262.832031 L 343.625 264.25 L 338.679688 266.941406 L 334.339844 269.832031 L 333.53125 272.011719 L 291.367188 272.011719 L 292.621094 271.199219 L 292.054688 268.308594 L 292.867188 268.308594 L 293.960938 266.078125 L 295.175781 264.707031 L 295.339844 263.085938 Z M 295.339844 263.085938 " type="plot-point" id="tennessee" xlink:title="tennessee">
          <title>tennessee</title>
        </path>
      </a>
      <a xlink:title="texas">
        <path style="fill-rule: nonzero; fill: rgb(100%,0%,0%); fill-opacity: 1;stroke-width: 0.75; stroke-linecap: round; stroke-linejoin: round; stroke: rgb(0%,0%,0%); stroke-opacity: 1;stroke-miterlimit: 10; " d="M 261.527344 283.78125 L 261.527344 283.78125 L 264.648438 284.59375 L 264.972656 298.644531 L 266.191406 301.941406 L 268.257812 307.167969 L 266.839844 313.40625 L 266.433594 316.601562 L 265.867188 318.226562 L 259.988281 320.914062 L 260.714844 319.898438 L 259.460938 320.050781 L 259.824219 317.871094 L 258 318.53125 L 258.164062 322.03125 L 256.785156 324.109375 L 252.445312 327.003906 L 249.203125 328.066406 L 249.160156 327.558594 L 248.027344 327.660156 L 247.175781 328.167969 L 246.242188 327.863281 L 246.769531 329.4375 L 247.539062 330.046875 L 245.835938 330.757812 L 245.269531 330.351562 L 244.214844 332.328125 L 244.011719 332.023438 L 243.566406 332.175781 L 242.027344 333.292969 L 242.433594 335.21875 L 239.960938 335.167969 L 241.257812 336.589844 L 240.160156 340.242188 L 239.878906 339.582031 L 238.863281 339.632812 L 238.417969 339.328125 L 239.230469 340.597656 L 240.609375 341.054688 L 240.203125 344.503906 L 241.824219 350.742188 L 242.554688 351.554688 L 239.472656 351.859375 L 233.554688 349.878906 L 233.511719 349.675781 L 229.335938 348.003906 L 227.230469 343.589844 L 226.09375 338.820312 L 221.632812 332.632812 L 216.6875 322.84375 L 212.753906 318.53125 L 206.875 317.667969 L 204.363281 318.378906 L 202.09375 322.488281 L 199.984375 325.226562 L 191.226562 319.898438 L 188.148438 311.9375 L 176.796875 300.824219 L 175.699219 298.59375 L 177.402344 298.644531 L 180.160156 298.59375 L 188.308594 298.59375 L 200.835938 298.59375 L 201.039062 258.875 L 207.324219 258.773438 L 214.984375 258.824219 L 215.917969 258.773438 L 222.566406 258.773438 L 222.605469 275.867188 L 224.308594 276.984375 L 226.945312 276.933594 L 228.242188 278.65625 L 232.945312 279.976562 L 233.957031 279.570312 L 234.769531 279.722656 L 235.621094 279.671875 L 237.082031 282.007812 L 238.417969 281.347656 L 240.609375 282.308594 L 241.863281 282.054688 L 242.433594 283.019531 L 243.890625 281.246094 L 244.660156 282.105469 L 246 281.855469 L 247.90625 283.070312 L 253.988281 281.246094 L 256.09375 281.195312 L 261.527344 283.78125 Z M 261.527344 283.78125 " type="plot-point" id="texas" xlink:title="texas">
          <title>texas</title>
        </path>
      </a>
      <a xlink:title="utah">
        <path style="fill-rule: nonzero; fill: rgb(100%,0%,0%); fill-opacity: 1;stroke-width: 0.75; stroke-linecap: round; stroke-linejoin: round; stroke: rgb(0%,0%,0%); stroke-opacity: 1;stroke-miterlimit: 10; " d="M 123.199219 209.972656 L 123.199219 209.972656 L 144.402344 210.023438 L 144.363281 218.898438 L 158.550781 218.898438 L 158.632812 254.308594 L 149.671875 254.257812 L 123.238281 254.308594 L 123.199219 209.972656 Z M 123.199219 209.972656 " type="plot-point" id="utah" xlink:title="utah">
          <title>utah</title>
        </path>
      </a>
      <a xlink:title="vermont">
        <path style="fill-rule: nonzero; fill: rgb(0%,0%,100%); fill-opacity: 1;stroke-width: 0.75; stroke-linecap: round; stroke-linejoin: round; stroke: rgb(0%,0%,0%); stroke-opacity: 1;stroke-miterlimit: 10; " d="M 411.085938 183.339844 L 411.085938 183.339844 L 423.9375 183.59375 L 423.207031 188.308594 L 420.492188 190.492188 L 417.53125 199.167969 L 416.964844 202.972656 L 411.652344 203.425781 L 411.816406 197.746094 L 411.046875 195.71875 L 410.722656 190.796875 L 411.085938 183.339844 Z M 411.085938 183.339844 " type="plot-point" id="vermont" xlink:title="vermont">
          <title>vermont</title>
        </path>
      </a>
      <a xlink:title="virginia">
        <path style="fill-rule: nonzero; fill: rgb(0%,0%,100%); fill-opacity: 1;stroke-width: 0.75; stroke-linecap: round; stroke-linejoin: round; stroke: rgb(0%,0%,0%); stroke-opacity: 1;stroke-miterlimit: 10; " d="M 394.949219 245.734375 L 394.949219 245.734375 L 396.53125 245.683594 L 392.597656 253.089844 L 392.355469 252.378906 L 392.4375 252.125 L 394.949219 245.734375 Z M 394.949219 245.734375 " type="plot-point" id="virginia:chesapeake" xlink:title="virginia">
          <title>virginia</title>
        </path>
      </a>
      <a xlink:title="virginia">
        <path style="fill-rule: nonzero; fill: rgb(0%,0%,100%); fill-opacity: 1;stroke-width: 0.75; stroke-linecap: round; stroke-linejoin: round; stroke: rgb(0%,0%,0%); stroke-opacity: 1;stroke-miterlimit: 10; " d="M 397.546875 245.074219 L 397.546875 245.074219 L 396.9375 246.75 L 397.546875 245.074219 Z M 397.546875 245.074219 " type="plot-point" id="virginia:chincoteague" xlink:title="virginia"/>
      </a>
      <a xlink:title="virginia">
        <path style="fill-rule: nonzero; fill: rgb(0%,0%,100%); fill-opacity: 1;stroke-width: 0.75; stroke-linecap: round; stroke-linejoin: round; stroke: rgb(0%,0%,0%); stroke-opacity: 1;stroke-miterlimit: 10; " d="M 380.273438 233.660156 L 380.273438 233.660156 L 381.773438 234.828125 L 384.894531 238.53125 L 383.113281 242.132812 L 385.058594 242.691406 L 390.492188 246.902344 L 389.597656 248.675781 L 386.679688 246.445312 L 389.679688 249.285156 L 389.679688 249.84375 L 390.492188 251.46875 L 389.316406 251.164062 L 389.152344 252.023438 L 387.289062 250.707031 L 390.410156 254.15625 L 389.394531 254.511719 L 386.597656 252.175781 L 385.949219 252.074219 L 386.558594 252.53125 L 388.992188 255.273438 L 390.246094 255.121094 L 391.910156 255.121094 L 393.371094 257.859375 L 392.558594 257.960938 L 338.394531 257.808594 L 343.949219 254.816406 L 350.191406 249.488281 L 351.691406 252.023438 L 354.207031 251.570312 L 354.855469 251.722656 L 360.164062 250.199219 L 360.734375 250.453125 L 362.152344 248.625 L 366.449219 240.308594 L 368.476562 241.675781 L 370.789062 238.632812 L 372.125 238.632812 L 373.828125 236.605469 L 375.734375 232.953125 L 379.339844 235.285156 L 380.273438 233.660156 Z M 380.273438 233.660156 " type="plot-point" id="virginia:main" xlink:title="virginia">
          <title>virginia</title>
        </path>
      </a>
      <a xlink:title="washington">
        <path style="fill-rule: nonzero; fill: rgb(0%,0%,100%); fill-opacity: 1;stroke-width: 0.75; stroke-linecap: round; stroke-linejoin: round; stroke: rgb(0%,0%,0%); stroke-opacity: 1;stroke-miterlimit: 10; " d="M 59.710938 151.835938 L 59.710938 151.835938 L 59.183594 151.734375 L 59.546875 152.648438 L 59.792969 152.648438 L 59.710938 151.835938 Z M 59.710938 151.835938 " type="plot-point" id="washington:san juan island" xlink:title="washington">
          <title>washington</title>
        </path>
      </a>
      <a xlink:title="washington">
        <path style="fill-rule: nonzero; fill: rgb(0%,0%,100%); fill-opacity: 1;stroke-width: 0.75; stroke-linecap: round; stroke-linejoin: round; stroke: rgb(0%,0%,0%); stroke-opacity: 1;stroke-miterlimit: 10; " d="M 61.089844 153.308594 L 61.089844 153.308594 L 61.007812 152.089844 L 61.089844 153.308594 Z M 61.089844 153.308594 " type="plot-point" id="washington:lopez island" xlink:title="washington"/>
      </a>
      <a xlink:title="washington">
        <path style="fill-rule: nonzero; fill: rgb(0%,0%,100%); fill-opacity: 1;stroke-width: 0.75; stroke-linecap: round; stroke-linejoin: round; stroke: rgb(0%,0%,0%); stroke-opacity: 1;stroke-miterlimit: 10; " d="M 61.492188 151.480469 L 61.492188 151.480469 L 60.359375 150.972656 L 60.195312 151.175781 L 60.238281 151.582031 L 60.886719 151.226562 L 61.492188 151.480469 Z M 61.492188 151.480469 " type="plot-point" id="washington:orcas island" xlink:title="washington">
          <title>washington</title>
        </path>
      </a>
      <a xlink:title="washington">
        <path style="fill-rule: nonzero; fill: rgb(0%,0%,100%); fill-opacity: 1;stroke-width: 0.75; stroke-linecap: round; stroke-linejoin: round; stroke: rgb(0%,0%,0%); stroke-opacity: 1;stroke-miterlimit: 10; " d="M 62.183594 155.335938 L 62.183594 155.335938 L 63.035156 153.816406 L 63.320312 154.425781 L 62.628906 154.980469 L 63.441406 156.605469 L 63.601562 156.605469 L 64.65625 157.367188 L 62.183594 155.335938 Z M 62.183594 155.335938 " type="plot-point" id="washington:whidbey island" xlink:title="washington">
          <title>washington</title>
        </path>
      </a>
      <a xlink:title="washington">
        <path style="fill-rule: nonzero; fill: rgb(0%,0%,100%); fill-opacity: 1;stroke-width: 0.75; stroke-linecap: round; stroke-linejoin: round; stroke: rgb(0%,0%,0%); stroke-opacity: 1;stroke-miterlimit: 10; " d="M 102.804688 174.613281 L 102.804688 174.613281 L 88.453125 174.613281 L 72.519531 177.707031 L 67.65625 177.503906 L 63.519531 178.367188 L 61.414062 177.199219 L 60.480469 173.953125 L 57.316406 172.890625 L 52.65625 171.316406 L 52.980469 169.539062 L 53.507812 171.214844 L 53.75 168.578125 L 52.371094 167.257812 L 52.574219 166.953125 L 53.792969 165.734375 L 52.453125 165.332031 L 52.007812 165.835938 L 49.210938 158.128906 L 48.117188 154.828125 L 48.601562 153.410156 L 57.84375 155.84375 L 61.492188 156.65625 L 61.574219 156.25 L 62.589844 156.808594 L 61.617188 159.039062 L 61.089844 158.9375 L 60.765625 159.75 L 60.195312 160.15625 L 59.019531 162.640625 L 60.5625 162.4375 L 59.507812 162.386719 L 63.15625 158.480469 L 63.359375 159.039062 L 62.34375 161.070312 L 63.035156 160.917969 L 63.195312 162.691406 L 62.46875 163.199219 L 61.941406 163.859375 L 61.617188 162.894531 L 59.871094 163.910156 L 60.117188 164.570312 L 60.722656 165.484375 L 60.925781 164.621094 L 61.777344 164.671875 L 63.644531 163.148438 L 64.65625 162.691406 L 64.496094 160.15625 L 65.589844 157.011719 L 64.65625 155.386719 L 62.386719 152.648438 L 63.117188 152.851562 L 63.765625 152.039062 L 63.035156 150.113281 L 61.65625 148.894531 L 66.277344 148.082031 L 102.15625 148.082031 L 102.078125 162.539062 L 102.804688 174.613281 Z M 102.804688 174.613281 " type="plot-point" id="washington:main" xlink:title="washington">
          <title>washington</title>
        </path>
      </a>
      <a xlink:title="west virginia">
        <path style="fill-rule: nonzero; fill: rgb(100%,0%,0%); fill-opacity: 1;stroke-width: 0.75; stroke-linecap: round; stroke-linejoin: round; stroke: rgb(0%,0%,0%); stroke-opacity: 1;stroke-miterlimit: 10; " d="M 367.664062 230.160156 L 367.664062 230.160156 L 367.949219 234.523438 L 373.015625 231.480469 L 375.125 231.277344 L 377.964844 231.074219 L 379.300781 231.9375 L 379.992188 234.117188 L 379.339844 235.285156 L 375.734375 232.953125 L 373.828125 236.605469 L 372.125 238.632812 L 370.789062 238.632812 L 368.476562 241.675781 L 366.449219 240.308594 L 362.152344 248.625 L 360.734375 250.453125 L 360.164062 250.199219 L 358.664062 250.960938 L 357.8125 250.859375 L 354.855469 251.722656 L 352.785156 252.480469 L 349.503906 249.488281 L 346.058594 244.769531 L 345.8125 242.234375 L 347.636719 241.269531 L 349.136719 236.808594 L 350.882812 237.414062 L 351.734375 234.878906 L 354.164062 233.054688 L 357.125 231.277344 L 359.113281 226.253906 L 359.355469 222.5 L 360.164062 222.042969 L 360.449219 230.160156 L 367.664062 230.160156 Z M 367.664062 230.160156 " type="plot-point" id="west virginia" xlink:title="west virginia">
          <title>west virginia</title>
        </path>
      </a>
      <a xlink:title="wisconsin">
        <path style="fill-rule: nonzero; fill: rgb(0%,0%,100%); fill-opacity: 1;stroke-width: 0.75; stroke-linecap: round; stroke-linejoin: round; stroke: rgb(0%,0%,0%); stroke-opacity: 1;stroke-miterlimit: 10; " d="M 308.921875 205.558594 L 308.921875 205.558594 L 302.027344 205.558594 L 300.851562 205.609375 L 288.648438 204.949219 L 285.648438 202.261719 L 285.285156 199.671875 L 285.769531 198.507812 L 284.351562 195.058594 L 283.460938 192.519531 L 276.121094 187.195312 L 273.566406 184.960938 L 274.339844 179.839844 L 272.796875 177.757812 L 275.394531 174.765625 L 277.136719 173.242188 L 277.621094 168.679688 L 288.042969 166.75 L 287.191406 169.488281 L 289.421875 169.339844 L 292.378906 171.113281 L 300.164062 173.496094 L 300.488281 173.699219 L 306.8125 175.628906 L 308.675781 177.046875 L 308.476562 180.347656 L 309.324219 180.246094 L 309.367188 181.308594 L 310.136719 182.476562 L 309.488281 183.644531 L 307.339844 187.144531 L 311.921875 184.203125 L 314.433594 180.851562 L 313.378906 183.542969 L 310.542969 191 L 308.554688 197.746094 L 308.921875 205.558594 Z M 308.921875 205.558594 " type="plot-point" id="wisconsin" xlink:title="wisconsin">
          <title>wisconsin</title>
        </path>
      </a>
      <a xlink:title="wyoming">
        <path style="fill-rule: nonzero; fill: rgb(100%,0%,0%); fill-opacity: 1;stroke-width: 0.75; stroke-linecap: round; stroke-linejoin: round; stroke: rgb(0%,0%,0%); stroke-opacity: 1;stroke-miterlimit: 10; " d="M 158.550781 218.898438 L 158.550781 218.898438 L 144.363281 218.898438 L 144.441406 183.492188 L 180.769531 183.390625 L 182.308594 183.390625 L 187.011719 183.390625 L 193.902344 183.390625 L 193.863281 218.796875 L 158.550781 218.898438 Z M 158.550781 218.898438 " type="plot-point" id="wyoming" xlink:title="wyoming">
          <title>wyoming</title>
        </path>
      </a>
      <a xlink:title="district of columbia">
        <rect x="384.367188" y="237.058594" width="1.460937" height="1.21875" class="tooltip">
          <title>district of columbia</title>
        </rect>
      </a>
      <a xlink:title="new york">
        <rect x="406.382812" y="220.574219" width="0.691407000000027" height="0.863281" class="tooltip">
          <title>new york</title>
        </rect>
      </a>
      <a xlink:title="north carolina">
        <rect x="393.167969" y="258.214844" width="2.35156199999994" height="6.69531199999994" class="tooltip">
          <title>north carolina</title>
        </rect>
      </a>
      <a xlink:title="north carolina">
        <rect x="392.394531" y="258.214844" width="0.652344000000028" height="0.558593999999971" class="tooltip">
          <title>north carolina</title>
        </rect>
      </a>
      <a xlink:title="virginia">
        <rect x="396.9375" y="245.074219" width="0.609375" height="1.675781" class="tooltip">
          <title>virginia</title>
        </rect>
      </a>
      <a xlink:title="washington">
        <rect x="61.007812" y="152.089844" width="0.0820319999999981" height="1.21875" class="tooltip">
          <title>washington</title>
        </rect>
      </a>
    </g>
  </g>
</svg>
